<svg width="41" height="40" viewBox="0 0 41 40" fill="none" xmlns="http://www.w3.org/2000/svg">
<g clip-path="url(#clip0_184_891)">
<g filter="url(#filter0_b_184_891)">
<mask id="path-1-inside-1_184_891" fill="white">
<path fill-rule="evenodd" clip-rule="evenodd" d="M3.46683 23.3457V23.8257C5.10663 23.8257 6.74485 23.8257 8.38186 23.8257C8.18012 25.5089 7.98328 27.1429 7.78645 28.7769L7.7863 28.7781C7.65084 29.9859 7.5944 31.1937 8.04594 31.7598C8.48619 32.326 8.70067 31.3447 8.84742 30.1369C8.94661 29.3188 9.04774 28.5039 9.14882 27.6894C9.30832 26.4043 9.4677 25.1201 9.61916 23.8257C16.8896 23.8255 24.1377 23.8244 31.3941 23.8199C31.5813 25.4065 31.7749 26.9754 31.9695 28.5532C32.0098 28.8794 32.05 29.2059 32.0903 29.533C32.1186 29.7406 32.144 29.9387 32.1693 30.1369C32.1947 30.335 32.2201 30.5332 32.2484 30.7408C32.3951 31.8353 32.6999 32.3637 32.9708 31.7221C33.1514 31.3069 33.3095 29.9859 33.2418 29.3065C33.0637 27.4734 32.8498 25.6852 32.6226 23.8191C34.4403 23.8178 36.2586 23.8163 38.078 23.8146V23.3345V8.31836C38.078 8.04948 38.0472 7.8187 37.9834 7.62416C37.9831 7.41626 37.9829 7.20821 37.9829 7H37.4895C37.2509 6.86476 36.9359 6.8 36.5377 6.8H5.00709C4.60532 6.8 4.28963 6.86458 4.05146 7H3V15.0017C3 17.1126 3.14539 18.5408 3.46683 19.395V23.3457ZM18.3113 14.4211C18.5615 14.4227 18.8117 14.4249 19.0618 14.4271C19.5372 14.4313 20.0121 14.4355 20.4858 14.4355H21.5711C20.4837 13.8089 19.4049 13.1867 18.3113 12.5497V14.4211Z"/>
</mask>
<path fill-rule="evenodd" clip-rule="evenodd" d="M3.46683 23.3457V23.8257C5.10663 23.8257 6.74485 23.8257 8.38186 23.8257C8.18012 25.5089 7.98328 27.1429 7.78645 28.7769L7.7863 28.7781C7.65084 29.9859 7.5944 31.1937 8.04594 31.7598C8.48619 32.326 8.70067 31.3447 8.84742 30.1369C8.94661 29.3188 9.04774 28.5039 9.14882 27.6894C9.30832 26.4043 9.4677 25.1201 9.61916 23.8257C16.8896 23.8255 24.1377 23.8244 31.3941 23.8199C31.5813 25.4065 31.7749 26.9754 31.9695 28.5532C32.0098 28.8794 32.05 29.2059 32.0903 29.533C32.1186 29.7406 32.144 29.9387 32.1693 30.1369C32.1947 30.335 32.2201 30.5332 32.2484 30.7408C32.3951 31.8353 32.6999 32.3637 32.9708 31.7221C33.1514 31.3069 33.3095 29.9859 33.2418 29.3065C33.0637 27.4734 32.8498 25.6852 32.6226 23.8191C34.4403 23.8178 36.2586 23.8163 38.078 23.8146V23.3345V8.31836C38.078 8.04948 38.0472 7.8187 37.9834 7.62416C37.9831 7.41626 37.9829 7.20821 37.9829 7H37.4895C37.2509 6.86476 36.9359 6.8 36.5377 6.8H5.00709C4.60532 6.8 4.28963 6.86458 4.05146 7H3V15.0017C3 17.1126 3.14539 18.5408 3.46683 19.395V23.3457ZM18.3113 14.4211C18.5615 14.4227 18.8117 14.4249 19.0618 14.4271C19.5372 14.4313 20.0121 14.4355 20.4858 14.4355H21.5711C20.4837 13.8089 19.4049 13.1867 18.3113 12.5497V14.4211Z" fill="#E60000"/>
<path d="M3.46683 23.8257H2.46683V24.8257H3.46683V23.8257ZM8.38186 23.8257L9.37475 23.9447L9.50888 22.8257L8.38184 22.8257L8.38186 23.8257ZM7.78645 28.7769L6.79363 28.6573L6.79361 28.6574L7.78645 28.7769ZM7.7863 28.7781L6.79343 28.6586L6.79253 28.6666L7.7863 28.7781ZM8.04594 31.7598L8.83541 31.1459L8.82774 31.1363L8.04594 31.7598ZM8.84742 30.1369L9.84012 30.2575L9.84015 30.2572L8.84742 30.1369ZM9.14882 27.6894L8.15644 27.5663L8.15644 27.5663L9.14882 27.6894ZM9.61916 23.8257L9.61913 22.8257L8.72934 22.8257L8.62593 23.7095L9.61916 23.8257ZM31.3941 23.8199L32.3872 23.7027L32.283 22.8193L31.3934 22.8199L31.3941 23.8199ZM31.9695 28.5532L30.977 28.6757L30.977 28.6757L31.9695 28.5532ZM32.0903 29.533L31.0977 29.6552L31.0994 29.6677L32.0903 29.533ZM32.2484 30.7408L33.2395 30.6079L33.2393 30.6061L32.2484 30.7408ZM32.9708 31.7221L32.0538 31.3232L32.0496 31.3331L32.9708 31.7221ZM33.2418 29.3065L32.2464 29.4032L32.2467 29.4057L33.2418 29.3065ZM32.6226 23.8191L32.6219 22.8191L31.4936 22.8198L31.6299 23.9399L32.6226 23.8191ZM38.078 23.8146L38.079 24.8146L39.078 24.8136V23.8146H38.078ZM37.9834 7.62416L36.9834 7.62575L36.9837 7.78472L37.0332 7.93578L37.9834 7.62416ZM37.9829 7H38.9829V6H37.9829V7ZM37.4895 7L36.9963 7.86996L37.2257 8H37.4895V7ZM4.05146 7V8H4.31588L4.54574 7.8693L4.05146 7ZM3 7V6H2V7H3ZM3.46683 19.395H4.46683V19.213L4.40276 19.0428L3.46683 19.395ZM18.3113 14.4211H17.3113V15.4148L18.305 15.4211L18.3113 14.4211ZM19.0618 14.4271L19.053 15.4271L19.053 15.4271L19.0618 14.4271ZM21.5711 14.4355V15.4355H25.3095L22.0704 13.5691L21.5711 14.4355ZM18.3113 12.5497L18.8147 11.6856L17.3113 10.8099V12.5497H18.3113ZM4.46683 23.8257V23.3457H2.46683V23.8257H4.46683ZM8.38184 22.8257C6.74484 22.8257 5.10663 22.8257 3.46683 22.8257V24.8257C5.10662 24.8257 6.74486 24.8257 8.38188 24.8257L8.38184 22.8257ZM8.77927 28.8965C8.9761 27.2625 9.17297 25.6283 9.37475 23.9447L7.38897 23.7067C7.18726 25.3896 6.99047 27.0233 6.79363 28.6573L8.77927 28.8965ZM8.77914 28.8976L8.77929 28.8963L6.79361 28.6574L6.79346 28.6586L8.77914 28.8976ZM8.82774 31.1363C8.82841 31.1372 8.82021 31.1271 8.80728 31.0991C8.79424 31.0709 8.77832 31.0286 8.76248 30.9689C8.72998 30.8462 8.70537 30.6787 8.69482 30.4611C8.67349 30.0213 8.71349 29.4832 8.78007 28.8896L6.79253 28.6666C6.72366 29.2808 6.6677 29.9505 6.69717 30.558C6.72475 31.1266 6.83262 31.8423 7.26413 32.3834L8.82774 31.1363ZM7.85472 30.0163C7.77933 30.6367 7.69924 31.0601 7.62512 31.2502C7.6101 31.2887 7.61182 31.2724 7.64172 31.2307C7.66659 31.1961 7.77198 31.0576 7.98865 30.9773C8.24745 30.8814 8.49581 30.9289 8.6604 31.0141C8.73105 31.0507 8.77743 31.0889 8.80123 31.1107C8.81382 31.1222 8.8226 31.1315 8.82778 31.1372C8.83043 31.1401 8.83235 31.1423 8.83356 31.1438C8.83417 31.1445 8.83462 31.1451 8.83491 31.1454C8.83506 31.1456 8.83517 31.1458 8.83524 31.1458C8.83531 31.1459 8.83535 31.146 8.83535 31.146L7.25652 32.3737C7.40496 32.5646 7.92453 33.1341 8.68387 32.8526C8.98485 32.741 9.16873 32.5333 9.26689 32.3964C9.37008 32.2526 9.43988 32.1013 9.48836 31.977C9.66822 31.516 9.76875 30.8448 9.84012 30.2575L7.85472 30.0163ZM8.15644 27.5663C8.05538 28.3805 7.95408 29.1968 7.85469 30.0165L9.84015 30.2572C9.93914 29.4408 10.0401 28.6273 10.1412 27.8126L8.15644 27.5663ZM8.62593 23.7095C8.47495 24.9998 8.31601 26.2805 8.15644 27.5663L10.1412 27.8126C10.3006 26.528 10.4605 25.2403 10.6124 23.9419L8.62593 23.7095ZM31.3934 22.8199C24.1374 22.8244 16.8895 22.8255 9.61913 22.8257L9.61919 24.8257C16.8897 24.8255 24.138 24.8244 31.3947 24.8199L31.3934 22.8199ZM32.962 28.4308C32.7673 26.8526 32.574 25.2862 32.3872 23.7027L30.401 23.937C30.5885 25.5267 30.7824 27.0983 30.977 28.6757L32.962 28.4308ZM33.0828 29.4107C33.0425 29.0835 33.0022 28.7569 32.962 28.4308L30.977 28.6757C31.0173 29.0018 31.0576 29.3282 31.0978 29.6552L33.0828 29.4107ZM33.1612 30.0097C33.1359 29.8121 33.11 29.6102 33.0812 29.3983L31.0994 29.6677C31.1271 29.8709 31.152 30.0654 31.1775 30.264L33.1612 30.0097ZM33.2393 30.6061C33.2116 30.4028 33.1867 30.2084 33.1612 30.0097L31.1775 30.264C31.2028 30.4617 31.2287 30.6635 31.2575 30.8755L33.2393 30.6061ZM32.0496 31.3331C32.0352 31.3671 32.0401 31.3451 32.076 31.2985C32.1066 31.2588 32.2198 31.1227 32.4406 31.0472C32.7036 30.9573 32.9639 31.0051 33.1508 31.1099C33.3041 31.1958 33.376 31.2996 33.3898 31.32C33.4177 31.361 33.3924 31.3371 33.349 31.1798C33.3108 31.0416 33.272 30.8501 33.2395 30.6079L31.2572 30.8736C31.2981 31.1787 31.3525 31.4637 31.4212 31.7124C31.4846 31.942 31.58 32.2153 31.7363 32.4451C31.8143 32.5598 31.9523 32.7308 32.1729 32.8545C32.4272 32.997 32.756 33.0531 33.0879 32.9396C33.3777 32.8404 33.5603 32.6489 33.66 32.5196C33.765 32.3833 33.8387 32.2375 33.8921 32.1111L32.0496 31.3331ZM32.2467 29.4057C32.2702 29.6416 32.2564 30.0602 32.2059 30.4993C32.1817 30.7106 32.1512 30.9068 32.1189 31.0661C32.1027 31.1455 32.0873 31.21 32.0737 31.2589C32.0591 31.3115 32.0512 31.3294 32.0538 31.3232L33.8878 32.121C34.0439 31.7621 34.1395 31.1925 34.1929 30.7274C34.2497 30.2324 34.281 29.6508 34.2368 29.2073L32.2467 29.4057ZM31.6299 23.9399C31.8571 25.8061 32.0697 27.5834 32.2464 29.4032L34.2371 29.2099C34.0578 27.3633 33.8425 25.5644 33.6153 23.6982L31.6299 23.9399ZM38.077 22.8146C36.2577 22.8163 34.4395 22.8178 32.6219 22.8191L32.6233 24.8191C34.4411 24.8178 36.2594 24.8163 38.079 24.8146L38.077 22.8146ZM37.078 23.3345V23.8146H39.078V23.3345H37.078ZM37.078 8.31836V23.3345H39.078V8.31836H37.078ZM37.0332 7.93578C37.0548 8.00152 37.078 8.12087 37.078 8.31836H39.078C39.078 7.97808 39.0397 7.63587 38.9336 7.31253L37.0332 7.93578ZM36.9829 7C36.9829 7.2088 36.9831 7.41739 36.9834 7.62575L38.9834 7.62256C38.9831 7.41513 38.9829 7.20761 38.9829 7H36.9829ZM37.4895 8H37.9829V6H37.4895V8ZM36.5377 7.8C36.8415 7.8 36.9641 7.8517 36.9963 7.86996L37.9826 6.13004C37.5376 5.87782 37.0304 5.8 36.5377 5.8V7.8ZM5.00709 7.8H36.5377V5.8H5.00709V7.8ZM4.54574 7.8693C4.57581 7.85221 4.6977 7.8 5.00709 7.8V5.8C4.51294 5.8 4.00346 5.87695 3.55718 6.1307L4.54574 7.8693ZM3 8H4.05146V6H3V8ZM4 15.0017V7H2V15.0017H4ZM4.40276 19.0428C4.15212 18.3767 4 17.1152 4 15.0017H2C2 17.1101 2.13865 18.7048 2.5309 19.7472L4.40276 19.0428ZM4.46683 23.3457V19.395H2.46683V23.3457H4.46683ZM18.305 15.4211C18.5537 15.4227 18.8027 15.4249 19.053 15.4271L19.0706 13.4272C18.8207 13.425 18.5693 13.4227 18.3177 13.4211L18.305 15.4211ZM19.053 15.4271C19.5276 15.4313 20.007 15.4355 20.4858 15.4355V13.4355C20.0173 13.4355 19.5467 13.4314 19.0706 13.4272L19.053 15.4271ZM20.4858 15.4355H21.5711V13.4355H20.4858V15.4355ZM22.0704 13.5691C20.983 12.9425 19.906 12.3213 18.8147 11.6856L17.808 13.4138C18.9038 14.0521 19.9844 14.6753 21.0718 15.302L22.0704 13.5691ZM17.3113 12.5497V14.4211H19.3113V12.5497H17.3113Z" fill="#E60000" mask="url(#path-1-inside-1_184_891)"/>
</g>
</g>
<defs>
<filter id="filter0_b_184_891" x="-9" y="-5.2" width="59.0779" height="49.2" filterUnits="userSpaceOnUse" color-interpolation-filters="sRGB">
<feFlood flood-opacity="0" result="BackgroundImageFix"/>
<feGaussianBlur in="BackgroundImageFix" stdDeviation="6"/>
<feComposite in2="SourceAlpha" operator="in" result="effect1_backgroundBlur_184_891"/>
<feBlend mode="normal" in="SourceGraphic" in2="effect1_backgroundBlur_184_891" result="shape"/>
</filter>
<clipPath id="clip0_184_891">
<rect width="34.6" height="25.6" fill="white" transform="translate(3.4668 6.8)"/>
</clipPath>
</defs>
</svg>
